<svg viewBox="0 0 32 32" xmlns="http://www.w3.org/2000/svg">
  <path d="M15.5 7.5s-11 -2.3-12.5 7c-1.5 9.3 8.5 12.2 9.5 12.5 1 .3 13.5 2 15.8-8 1.9-8.3-5.5-13.3-11.8-11.5z" fill="#FF3D00"/>
  <path d="M16.3 8l-.8-.2s-8.5-1.7-10.8 3.5c1.1.7 2.9 1.4 2.9 1.4 1.2.5 2.4.8 3.5.8s2.1-.3 2.9-.7c.3 1.4 1.1 2.8 2.9 3.9l1.3.8.6-1.4c.5-1.2.8-2.2.9-3.1.7.4 1.5.6 2.3.6 1 0 2.1-.3 3.1-1 0 0 1.3-.8 2.2-1.4-2.3-3.1-6.5-4.4-10.3-3.4z" fill="#DD2C00"/>
  <path d="M17 15.7c1.3-3 .8-4.3-.5-6.8 1.7 2.3 4.1 4.8 7.3 2.7-2.5-.7-2-2.6-5.1-3.1 2.3.1 3.5.8 5.1-2.3-2.5 1.3-3.9-1.6-7.2 1.4-.5.3-1.1-.5-1.6-.1-2.3-3.9-5.1-.4-6.2-3.4 0 4.6 4.4 3.3 5.4 4.1-4.1-.3-3.8 2.8-6.8 3.4 3.9 1.7 6.5 0 7.5-2.8-.2 1.1-1.6 4.7 2 6.9z" fill="#4CAF50"/>
  <path d="M15 8.2c0 .1.3.6 1.2.6 1.1 0 .7-.5.7-.5s-.1-3.2 2.2-5.3c-.6-.5-1.2-.2-1.2-.2s-2.7 2.9-2.9 5.4z" fill="#4CAF50"/>
</svg>
